<?xml version="1.0" encoding="iso-8859-1"?>
<!-- Generator: Adobe Illustrator 19.0.0, SVG Export Plug-In . SVG Version: 6.00 Build 0)  -->
<svg version="1.1" id="Capa_1" xmlns="http://www.w3.org/2000/svg" xmlns:xlink="http://www.w3.org/1999/xlink" x="0px" y="0px"
	 viewBox="0 0 512 512" style="enable-background:new 0 0 512 512;" xml:space="preserve">
	 <style>
		/* <![CDATA[ */
		path {
			fill: #ff911b;
		}
		/* ]]> */
	</style>
<g>
	<g>
		<path d="M506.776,243.845l-20.439-29.192c-3.184-4.547-9.449-5.654-13.995-2.468c-4.546,3.183-5.652,9.448-2.469,13.995
			l20.44,29.193c2.799,3.996,1.822,9.525-2.176,12.323c-3.996,2.798-9.523,1.822-12.323-2.176l-41.201-58.827
			c-2.688-3.839-7.672-5.307-12.012-3.546c-4.341,1.764-6.888,6.292-6.139,10.916l21.237,131.203h-11.317
			c-5.55,0-10.049,4.5-10.049,10.049v77.659h-26.891v-77.659c0-5.549-4.499-10.049-10.049-10.049s-10.049,4.5-10.049,10.049v77.659
			h-26.901v-77.659c0-5.549-4.499-10.049-10.049-10.049h-11.316l21.237-131.193c0.749-4.626-1.799-9.154-6.14-10.916
			c-4.343-1.765-9.325-0.29-12.013,3.547l-41.182,58.819c-1.653,2.363-4.371,3.772-7.272,3.772c-1.817,0-3.564-0.552-5.058-1.599
			c-3.999-2.801-4.974-8.329-2.176-12.325l65.837-94.033c2.078-2.964,5.471-4.734,9.076-4.734h72.011
			c3.605,0,6.998,1.77,9.072,4.728l15.333,21.9c3.184,4.547,9.448,5.653,13.995,2.468c4.546-3.183,5.652-9.448,2.469-13.995
			L440.931,149.8c-5.196-7.411-13.334-12.152-22.219-13.106c5.978-8.104,9.519-18.108,9.519-28.927
			c0-26.93-21.909-48.839-48.838-48.839s-48.838,21.909-48.838,48.839c0,10.82,3.542,20.825,9.519,28.927
			c-8.886,0.954-17.024,5.696-22.223,13.112L256,238.145l-61.858-88.335c-5.187-7.417-13.328-12.162-22.227-13.116
			c5.977-8.104,9.519-18.108,9.519-28.927c0-26.93-21.909-48.839-48.838-48.839s-48.838,21.909-48.838,48.839
			c0,10.82,3.542,20.825,9.521,28.928c-8.895,0.956-17.031,5.7-22.214,13.111L5.225,243.844
			c-9.155,13.073-5.965,31.158,7.105,40.312c4.888,3.426,10.625,5.238,16.592,5.238c9.448,0,18.318-4.617,23.727-12.344
			l22.911-32.715v74.04v124.648c0,5.549,4.499,10.049,10.049,10.049h46.989h46.999c5.55,0,10.049-4.5,10.049-10.049V318.375v-74.046
			l22.911,32.721c9.159,13.08,27.249,16.265,40.322,7.112c1.107-0.775,2.141-1.628,3.116-2.535c0.969,0.901,2.005,1.751,3.119,2.531
			c4.888,3.426,10.625,5.238,16.592,5.238c9.454,0,18.328-4.617,23.738-12.345l16.018-22.88L299.35,353.71
			c-0.47,2.908,0.358,5.876,2.267,8.119c1.909,2.243,4.707,3.536,7.652,3.536h13.074v77.659c0,5.549,4.499,10.049,10.049,10.049
			h46.999h46.989c5.55,0,10.049-4.5,10.049-10.049v-77.659h13.074c2.945,0,5.743-1.292,7.652-3.536s2.738-5.211,2.267-8.119
			l-16.116-99.566l16.042,22.906c9.159,13.076,27.245,16.264,40.317,7.109C512.74,275.002,515.93,256.917,506.776,243.845z
			 M379.392,79.025c15.847,0,28.74,12.893,28.74,28.741c0,15.847-12.893,28.74-28.74,28.74c-15.847,0-28.74-12.893-28.74-28.74
			C350.652,91.918,363.545,79.025,379.392,79.025z M132.598,79.025c15.847,0,28.74,12.893,28.74,28.741
			c0,15.847-12.893,28.74-28.74,28.74s-28.74-12.893-28.74-28.74C103.857,91.918,116.75,79.025,132.598,79.025z M241.353,267.695
			c-3.999,2.802-9.531,1.825-12.332-2.175l-41.191-58.827c-2.515-3.594-7.074-5.138-11.253-3.821
			c-4.183,1.319-7.027,5.198-7.027,9.584v105.917v114.599h-26.901V318.374c0-5.549-4.499-10.049-10.049-10.049
			c-5.55,0-10.049,4.5-10.049,10.049v114.599H95.658V318.374V212.467c0-4.385-2.844-8.265-7.027-9.584
			c-4.184-1.318-8.738,0.228-11.253,3.82l-41.193,58.82c-1.653,2.363-4.368,3.772-7.262,3.772c-1.817,0-3.564-0.552-5.058-1.599
			c-3.997-2.8-4.974-8.329-2.176-12.325l65.844-94.043c2.069-2.958,5.459-4.724,9.069-4.724h72.001c3.611,0,7.001,1.767,9.073,4.729
			l65.855,94.044c1.044,1.488,1.596,3.237,1.596,5.054C245.127,263.326,243.717,266.041,241.353,267.695z"/>
	</g>
</g>
<g>
	<g>
		<path d="M461.754,190.179c-12.932,0-12.954,20.098,0,20.098C474.686,210.277,474.708,190.179,461.754,190.179z"/>
	</g>
</g>
<g>
</g>
<g>
</g>
<g>
</g>
<g>
</g>
<g>
</g>
<g>
</g>
<g>
</g>
<g>
</g>
<g>
</g>
<g>
</g>
<g>
</g>
<g>
</g>
<g>
</g>
<g>
</g>
<g>
</g>
</svg>
