<svg version="1.1" id="Layer_1" xmlns="http://www.w3.org/2000/svg" xmlns:xlink="http://www.w3.org/1999/xlink" x="0px" y="0px" viewBox="0 0 512 512" style="enable-background:new 0 0 512 512;" xml:space="preserve">
	 <style>
		/* <![CDATA[ */
		path {
			fill: #ff911b;
		}
		/* ]]> */
	</style>
<g>
	<g>
		<path d="M503.551,406.015h-37.728v-90.88h14.082c3.437,0,6.532-2.082,7.826-5.266c1.294-3.184,0.533-6.834-1.929-9.233
			l-67.031-65.341c-1.641-1.599-3.77-2.398-5.898-2.398h-71.912v-21.593c0-4.666-3.783-8.449-8.449-8.449h-25.081
			c-4.666,0-8.449,3.783-8.449,8.449v21.593h-3.272c-2.204,0-4.319,0.861-5.898,2.398l-33.815,32.961l-33.813-32.961
			c-1.641-1.599-3.77-2.398-5.898-2.398h-63.839v-21.593c0-4.666-3.783-8.449-8.449-8.449h-25.081c-4.666,0-8.449,3.783-8.449,8.449
			v21.593H99.126c-2.204,0-4.319,0.861-5.898,2.398l-67.031,65.341c-2.462,2.4-3.223,6.051-1.929,9.233
			c1.294,3.184,4.389,5.266,7.826,5.266h12.854v28.164H35.69c-4.666,0-8.449,3.783-8.449,8.449v54.267H8.449
			c-4.666,0-8.449,3.783-8.449,8.449s3.783,8.449,8.449,8.449h495.102c4.666,0,8.449-3.783,8.449-8.449
			C512,409.798,508.217,406.015,503.551,406.015z M315.882,219.752h8.182v13.144h-8.182V219.752z M127.369,219.752h8.182v13.144
			h-8.182V219.752z M102.563,249.794h92.953l-49.695,48.442H52.866L102.563,249.794z M109.265,406.015H44.139v-45.818h65.126
			V406.015z M163.34,406.015h-37.177v-45.818h37.177V406.015z M163.34,343.299H61.847v-28.164H163.34V343.299z M252.339,406.015
			h-72.1v-90.88h72.1V406.015z M170.029,298.236l46.259-45.092l46.258,45.092H170.029z M299.149,249.794h92.953l-49.695,48.442
			h-55.65l-18.653-18.182L299.149,249.794z M305.851,406.015h-36.613v-45.818h36.613V406.015z M359.926,406.015h-37.177v-45.817
			h37.177V406.015z M359.926,343.299h-90.689v-28.164h90.689V343.299z M448.925,406.015h-72.1v-90.88h72.1V406.015z
			 M366.615,298.236l46.259-45.092l46.258,45.092H366.615z"/>
	</g>
</g>
<g>
	<g>
		<path d="M503.551,438.12H8.449c-4.666,0-8.449,3.783-8.449,8.449c0,4.666,3.783,8.449,8.449,8.449h495.102
			c4.666,0,8.449-3.783,8.449-8.449C512,441.903,508.217,438.12,503.551,438.12z"/>
	</g>
</g>
<g>
	<g>
		<path d="M199.39,321.894c-4.666,0-8.449,3.783-8.449,8.449v14.645c0,4.666,3.783,8.449,8.449,8.449s8.449-3.783,8.449-8.449
			v-14.645C207.839,325.677,204.056,321.894,199.39,321.894z"/>
	</g>
</g>
<g>
	<g>
		<path d="M233.187,321.894c-4.666,0-8.449,3.783-8.449,8.449v14.645c0,4.666,3.783,8.449,8.449,8.449
			c4.666,0,8.449-3.783,8.449-8.449v-14.645C241.636,325.677,237.853,321.894,233.187,321.894z"/>
	</g>
</g>
<g>
	<g>
		<path d="M199.39,361.324c-4.666,0-8.449,3.783-8.449,8.449v14.645c0,4.666,3.783,8.449,8.449,8.449s8.449-3.783,8.449-8.449
			v-14.645C207.839,365.107,204.056,361.324,199.39,361.324z"/>
	</g>
</g>
<g>
	<g>
		<path d="M233.187,361.324c-4.666,0-8.449,3.783-8.449,8.449v14.645c0,4.666,3.783,8.449,8.449,8.449
			c4.666,0,8.449-3.783,8.449-8.449v-14.645C241.636,365.107,237.853,361.324,233.187,361.324z"/>
	</g>
</g>
<g>
	<g>
		<path d="M395.976,321.894c-4.666,0-8.449,3.783-8.449,8.449v14.645c0,4.666,3.783,8.449,8.449,8.449s8.449-3.783,8.449-8.449
			v-14.645C404.425,325.677,400.642,321.894,395.976,321.894z"/>
	</g>
</g>
<g>
	<g>
		<path d="M429.773,321.894c-4.666,0-8.449,3.783-8.449,8.449v14.645c0,4.666,3.783,8.449,8.449,8.449s8.449-3.783,8.449-8.449
			v-14.645C438.222,325.677,434.439,321.894,429.773,321.894z"/>
	</g>
</g>
<g>
	<g>
		<path d="M395.976,361.324c-4.666,0-8.449,3.783-8.449,8.449v14.645c0,4.666,3.783,8.449,8.449,8.449s8.449-3.783,8.449-8.449
			v-14.645C404.425,365.107,400.642,361.324,395.976,361.324z"/>
	</g>
</g>
<g>
	<g>
		<path d="M429.773,361.324c-4.666,0-8.449,3.783-8.449,8.449v14.645c0,4.666,3.783,8.449,8.449,8.449s8.449-3.783,8.449-8.449
			v-14.645C438.222,365.107,434.439,361.324,429.773,361.324z"/>
	</g>
</g>
<g>
	<g>
		<path d="M231.435,116.971H205.93c1.017-2.767,1.573-5.756,1.573-8.871c0-14.209-11.56-25.769-25.769-25.769h-35.785
			c-12.282-15.948-31.205-25.35-51.512-25.35c-35.873,0-65.059,29.185-65.059,65.059c0,35.874,29.185,65.059,65.059,65.059
			c17.573,0,34.119-7.006,46.302-19.385c2.033,0.518,4.163,0.795,6.356,0.795h84.342c14.209,0,25.77-11.56,25.77-25.769
			S245.646,116.971,231.435,116.971z M94.436,170.203c-26.555,0-48.161-21.605-48.161-48.161c0-26.555,21.604-48.162,48.161-48.162
			c9.895,0,19.34,3.025,27.24,8.451H97.393c-14.209,0-25.77,11.56-25.77,25.769s11.561,25.769,25.77,25.769h25.505
			c-1.017,2.768-1.573,5.755-1.573,8.872c0,5.736,1.886,11.04,5.067,15.327C117.646,165.851,106.358,170.203,94.436,170.203z
			 M231.434,151.612h-84.342c-4.892,0-8.871-3.979-8.871-8.871s3.979-8.872,8.871-8.872c4.666,0,8.449-3.783,8.449-8.449
			c0-4.666-3.783-8.449-8.449-8.449h-49.7c-4.892,0-8.872-3.979-8.872-8.871s3.98-8.871,8.872-8.871h84.342
			c4.89,0,8.87,3.979,8.87,8.871s-3.979,8.871-8.871,8.871c-4.666,0-8.449,3.783-8.449,8.449c0,4.666,3.783,8.449,8.449,8.449
			h49.701c4.892,0,8.872,3.979,8.872,8.872C240.306,147.633,236.326,151.612,231.434,151.612z"/>
	</g>
</g>
<g>
	<g>
		<circle cx="216.245" cy="283.196" r="8.449"/>
	</g>
</g>
<g>
	<g>
		<circle cx="412.988" cy="283.196" r="8.449"/>
	</g>
</g>
</svg>