<svg version="1.1" id="Capa_1" xmlns="http://www.w3.org/2000/svg" xmlns:xlink="http://www.w3.org/1999/xlink" x="0px" y="0px"
	 viewBox="0 0 512 512" style="enable-background:new 0 0 512 512;" xml:space="preserve">
	 <style>
		/* <![CDATA[ */
		path {
			fill: #ff911b;
		}
		/* ]]> */
	</style>
<g>
	<g>
		<path d="M464.907,291.982V173.47c0-10.53-8.527-19.098-19.01-19.098h-11.699V83.8c0-10.531-8.527-19.099-19.01-19.099h-64.742
			V62.61C350.445,28.087,322.576,0,288.32,0c-34.255,0-62.123,28.087-62.123,62.61v2.091h-64.742
			c-10.482,0-19.01,8.567-19.01,19.099v70.572h-11.699c-10.482,0-19.01,8.567-19.01,19.098v20.081
			c-5.625-2.338-11.787-3.634-18.248-3.634c-26.355,0-47.797,21.441-47.797,47.796v61.204h-1.207c-6.893,0-12.5,5.607-12.5,12.5v17
			c0,6.893,5.607,12.5,12.5,12.5h1.207v61.204c0,26.354,21.441,47.796,47.797,47.796c1.729,0,3.43-0.118,5.111-0.298v38.537
			c0,9.649,7.851,17.5,17.5,17.5h38.695c2.151,3.782,6.211,6.344,10.865,6.344h22.842c4.654,0,8.714-2.561,10.865-6.344H377.27
			c2.151,3.782,6.211,6.344,10.865,6.344h22.844c4.654,0,8.714-2.561,10.865-6.344h38.693c9.649,0,17.5-7.851,17.5-17.5v-51.9
			c0-5.068-2.179-9.626-5.633-12.825c4.73-5.406,7.609-12.49,7.609-20.241v-84.729h0.003
			C480.016,307.187,473.937,297.318,464.907,291.982z M46.984,325.917v-12h49.977c-0.22,1.483-0.337,3-0.337,4.544v7.456H46.984z
			 M93.488,408.547c1.253,0,2.432-0.311,3.47-0.854c0.24,1.634,0.611,3.224,1.099,4.763c-1.398,0.621-2.942,0.971-4.568,0.971
			c-6.233,0-11.305-5.071-11.305-11.305v-61.204h3.805v60.13C85.988,405.19,89.346,408.547,93.488,408.547z M98.693,434.499
			c-1.695,0.273-3.434,0.418-5.205,0.418c-18.084,0-32.797-14.712-32.797-32.796v-61.204h6.492v61.204
			c0,14.505,11.8,26.305,26.305,26.305c2.647,0,5.202-0.398,7.614-1.128C99.809,429.445,98.958,431.883,98.693,434.499z
			 M104.793,297.59c-0.399,0.433-0.79,0.872-1.164,1.327h-2.641v-60.13c0-4.143-3.357-7.5-7.5-7.5c-4.143,0-7.5,3.357-7.5,7.5v60.13
			h-3.805V288c0-4.143-3.357-7.5-7.5-7.5s-7.5,3.357-7.5,7.5v10.917h-6.492v-61.204c0-18.084,14.713-32.796,32.797-32.796
			c6.754,0,13.027,2.063,18.248,5.579v8.295c-4.733-4.566-11.166-7.383-18.248-7.383c-14.505,0-26.305,11.8-26.305,26.305V253
			c0,4.143,3.357,7.5,7.5,7.5s7.5-3.357,7.5-7.5v-15.287c0-6.233,5.071-11.305,11.305-11.305c6.233,0,11.305,5.071,11.305,11.305
			V297.59z M153.161,490.656L153.161,490.656H116.1c-1.355,0-2.5-1.145-2.5-2.5v-51.9c0-1.355,1.145-2.5,2.5-2.5h37.061V490.656z
			 M153.844,418.757h-28.597c-7.664-0.952-13.622-7.563-13.622-15.566v-84.729c0-8.655,6.963-15.696,15.521-15.696h27.363v114.413
			h0.001C154.253,417.687,154.031,418.213,153.844,418.757z M154.51,287.765h-27.363c-0.138,0-0.273,0.009-0.41,0.011V173.47
			c0-2.221,1.836-4.098,4.01-4.098h11.699v36.376c0,8.066,5.012,14.965,12.064,17.76V287.765z M241.197,62.61
			c0-26.252,21.14-47.61,47.123-47.61c25.984,0,47.125,21.358,47.125,47.61v2.091h-15.59V62.61
			c0-17.506-14.146-31.748-31.535-31.748c-17.388,0-31.533,14.242-31.533,31.748v2.091h-15.59V62.61z M304.855,62.61v2.091h-33.068
			V62.61c0-9.235,7.417-16.748,16.533-16.748C297.438,45.862,304.855,53.375,304.855,62.61z M161.455,209.846
			c-2.174,0-4.01-1.877-4.01-4.098V83.8c0-2.222,1.836-4.099,4.01-4.099h253.732c2.174,0,4.01,1.877,4.01,4.099v121.948
			c0,2.221-1.836,4.098-4.01,4.098h-33.275v-21.001c0-6.054-4.913-10.979-10.953-10.979h-17.856c-6.04,0-10.953,4.926-10.953,10.979
			v21.001H234.492v-21.001c0-6.054-4.913-10.979-10.953-10.979h-17.857c-6.04,0-10.953,4.926-10.953,10.979v21.001H161.455z
			 M366.912,192.865v71.708h-9.762v-71.708H366.912z M219.492,192.865v71.708h-9.764v-71.708H219.492z M186.002,497H168.16v-71.702
			h17.842V497z M375.637,490.656H201.002v-56.77h174.635V490.656z M408.48,497h-17.844v-71.702h17.844V497z M414.633,263.5
			c-4.143,0-7.5,3.357-7.5,7.5v139.298h-18.996c-5.477,0-10.131,3.546-11.816,8.459H200.318c-1.685-4.913-6.34-8.459-11.816-8.459
			H169.51V224.846h25.219v43.749c0,6.054,4.913,10.979,10.953,10.979h17.857c6.04,0,10.953-4.925,10.953-10.979v-43.749H342.15
			v43.749c0,6.054,4.913,10.979,10.953,10.979h17.856c6.04,0,10.953-4.925,10.953-10.979v-43.749h25.221V234
			c0,4.143,3.357,7.5,7.5,7.5s7.5-3.357,7.5-7.5v-10.492c7.053-2.795,12.064-9.693,12.064-17.76v-36.376h11.699
			c2.174,0,4.01,1.877,4.01,4.098v114.306c-0.137-0.002-0.273-0.011-0.41-0.011h-27.363V271
			C422.133,266.857,418.775,263.5,414.633,263.5z M463.039,488.156c0,1.355-1.145,2.5-2.5,2.5H423.48v-56.9h37.059
			c1.355,0,2.5,1.145,2.5,2.5V488.156z M465.016,403.19c0,8.004-5.957,14.614-13.62,15.566h-28.599
			c-0.186-0.543-0.408-1.067-0.664-1.574V302.765h27.363c8.558,0,15.52,7.041,15.52,15.696V403.19z"/>
	</g>
</g>
<g>
	<g>
		<path d="M368.658,296.092H207.984c-7.31,0-13.256,5.966-13.256,13.299v75.301c0,7.333,5.946,13.299,13.256,13.299H306
			c4.143,0,7.5-3.357,7.5-7.5s-3.357-7.5-7.5-7.5h-96.271v-71.898h157.184v71.898H343c-4.143,0-7.5,3.357-7.5,7.5s3.357,7.5,7.5,7.5
			h25.658c7.309,0,13.254-5.966,13.254-13.299v-75.301C381.912,302.058,375.967,296.092,368.658,296.092z"/>
	</g>
</g>
<g>
	<g>
		<path d="M311.682,135.018h-46.719c-7.31,0-13.256,5.966-13.256,13.299v27.556c0,7.334,5.946,13.3,13.256,13.3h46.719
			c7.309,0,13.254-5.966,13.254-13.3v-27.556C324.936,140.984,318.991,135.018,311.682,135.018z M309.935,174.173h-43.228v-24.154
			h43.228V174.173z"/>
	</g>
</g>
</svg>