<?xml version="1.0" encoding="iso-8859-1"?>
<!-- Generator: Adobe Illustrator 19.0.0, SVG Export Plug-In . SVG Version: 6.00 Build 0)  -->
<svg version="1.1" id="Capa_1" xmlns="http://www.w3.org/2000/svg" xmlns:xlink="http://www.w3.org/1999/xlink" x="0px" y="0px"
	 viewBox="0 0 470 470" style="enable-background:new 0 0 470 470;" xml:space="preserve">
	 <style>
		/* <![CDATA[ */
		path {
			fill: #ff911b;
		}
		/* ]]> */
	</style>
<g>
	<path d="M296.867,260.9c-27.488,0-50.261,20.509-53.858,47.026h-16.019c-3.597-26.517-26.37-47.026-53.858-47.026
		c-29.979,0-54.367,24.389-54.367,54.368c0,29.978,24.389,54.367,54.367,54.367c27.378,0,50.083-20.345,53.817-46.708h16.1
		c3.735,26.363,26.439,46.708,53.817,46.708c29.979,0,54.368-24.389,54.368-54.367C351.235,285.289,326.846,260.9,296.867,260.9z
		 M173.133,354.635c-21.707,0-39.367-17.66-39.367-39.367c0-21.708,17.66-39.368,39.367-39.368s39.367,17.66,39.367,39.368
		C212.5,336.975,194.84,354.635,173.133,354.635z M296.867,354.635c-21.707,0-39.367-17.66-39.367-39.367
		c0-21.708,17.66-39.368,39.367-39.368c21.708,0,39.368,17.66,39.368,39.368C336.235,336.975,318.575,354.635,296.867,354.635z"/>
	<path d="M462.5,55.248h-23.706v-2.5c0-4.142-3.357-7.5-7.5-7.5s-7.5,3.358-7.5,7.5v2.5H7.5c-4.143,0-7.5,3.358-7.5,7.5v30
		c0,4.142,3.357,7.5,7.5,7.5h111.266v130.271c0,2.657,1.406,5.116,3.695,6.463c2.29,1.348,5.122,1.384,7.445,0.094
		c13.169-7.311,28.116-11.176,43.227-11.176c20.795,0,41.063,7.335,57.07,20.655c1.39,1.157,3.094,1.735,4.797,1.735
		s3.407-0.578,4.797-1.735c16.008-13.319,36.275-20.655,57.07-20.655c15.111,0,30.059,3.865,43.228,11.176
		c2.321,1.29,5.154,1.254,7.445-0.094c2.289-1.348,3.695-3.806,3.695-6.463V122.748c0-4.142-3.357-7.5-7.5-7.5s-7.5,3.358-7.5,7.5
		v95.875c-12.449-5.076-25.854-7.723-39.368-7.723c-22.26,0-44,7.192-61.867,20.366c-17.867-13.173-39.607-20.366-61.867-20.366
		c-13.515,0-26.919,2.647-39.367,7.723V100.248h290.028v105.67c-8.729,3.096-15,11.432-15,21.21c0,4.897,1.577,9.43,4.244,13.128
		c-8.591,5.855-14.244,15.715-14.244,26.872v150.124c0,4.142,3.357,7.5,7.5,7.5s7.5-3.358,7.5-7.5V267.128
		c0-6.963,4.098-12.972,10-15.787v165.911c0,4.142,3.357,7.5,7.5,7.5s7.5-3.358,7.5-7.5V251.341c5.902,2.816,10,8.824,10,15.787
		v150.124c0,4.142,3.357,7.5,7.5,7.5s7.5-3.358,7.5-7.5V267.128c0-11.157-5.653-21.018-14.244-26.872
		c2.667-3.698,4.244-8.231,4.244-13.128c0-9.777-6.271-18.114-15-21.21v-105.67H462.5c4.143,0,7.5-3.358,7.5-7.5v-30
		C470,58.606,466.643,55.248,462.5,55.248z M423.794,227.128c0-4.136,3.364-7.5,7.5-7.5s7.5,3.364,7.5,7.5s-3.364,7.5-7.5,7.5
		S423.794,231.264,423.794,227.128z M15,85.248v-15h408.794v15H15z M455,85.248h-16.206v-15H455V85.248z"/>
	<path d="M287.074,190.1c-0.048-0.114-0.107-0.223-0.161-0.334c-0.052-0.107-0.098-0.217-0.155-0.322
		c-0.104-0.191-0.218-0.375-0.338-0.556c-0.013-0.02-0.024-0.042-0.037-0.062c-1.348-1.996-3.631-3.309-6.219-3.309
		c-4.14,0-7.5,3.36-7.5,7.5c0,0.26,0.013,0.516,0.039,0.769c0.384,3.782,3.578,6.734,7.461,6.734c4.142,0,7.5-3.358,7.5-7.5
		c0-0.777-0.118-1.526-0.338-2.231c-0.033-0.107-0.077-0.21-0.115-0.315C287.166,190.349,287.126,190.221,287.074,190.1z"/>
	<path d="M307.074,160.1c-0.048-0.114-0.107-0.223-0.161-0.334c-0.052-0.107-0.098-0.217-0.155-0.322
		c-0.104-0.191-0.218-0.375-0.338-0.556c-0.013-0.02-0.024-0.042-0.037-0.062c-1.348-1.996-3.631-3.309-6.219-3.309
		c-4.14,0-7.5,3.36-7.5,7.5c0,0.26,0.013,0.516,0.039,0.769c0.384,3.782,3.578,6.734,7.461,6.734c4.142,0,7.5-3.358,7.5-7.5
		c0-0.777-0.118-1.526-0.338-2.231c-0.033-0.107-0.077-0.21-0.115-0.315C307.166,160.349,307.126,160.221,307.074,160.1z"/>
</g>
<g>
</g>
<g>
</g>
<g>
</g>
<g>
</g>
<g>
</g>
<g>
</g>
<g>
</g>
<g>
</g>
<g>
</g>
<g>
</g>
<g>
</g>
<g>
</g>
<g>
</g>
<g>
</g>
<g>
</g>
</svg>
