<svg version="1.1" id="Layer_1" xmlns="http://www.w3.org/2000/svg" xmlns:xlink="http://www.w3.org/1999/xlink" x="0px" y="0px"
	 viewBox="0 0 512 512" style="enable-background:new 0 0 512 512;" xml:space="preserve">
	 <style>
		/* <![CDATA[ */
		path {
			fill: #0057a2;
		}
		/* ]]> */
	</style>
<g>
	<g>
		<g>
			<path d="M256,119.467c28.237,0,51.2-22.963,51.2-51.2v-25.6C307.2,19.14,288.06,0,264.533,0h-17.067
				C223.94,0,204.8,19.14,204.8,42.667v25.6C204.8,96.503,227.763,119.467,256,119.467z M221.867,42.667
				c0-14.114,11.486-25.6,25.6-25.6h17.067c14.114,0,25.6,11.486,25.6,25.6v25.6c0,18.825-15.309,34.133-34.133,34.133
				c-18.825,0-34.133-15.309-34.133-34.133V42.667z"/>
			<path d="M264.533,238.933h-17.067c-23.526,0-42.667,19.14-42.667,42.667v25.6c0,28.237,22.963,51.2,51.2,51.2
				s51.2-22.963,51.2-51.2v-25.6C307.2,258.074,288.06,238.933,264.533,238.933z M290.133,307.2
				c0,18.825-15.309,34.133-34.133,34.133c-18.825,0-34.133-15.309-34.133-34.133v-25.6c0-14.114,11.486-25.6,25.6-25.6h17.067
				c14.114,0,25.6,11.486,25.6,25.6V307.2z"/>
			<path d="M281.6,162.133v25.6c0,28.237,22.963,51.2,51.2,51.2c28.237,0,51.2-22.963,51.2-51.2v-25.6
				c0-23.526-19.14-42.667-42.667-42.667h-17.067C300.74,119.467,281.6,138.607,281.6,162.133z M298.667,162.133
				c0-14.114,11.486-25.6,25.6-25.6h17.067c14.114,0,25.6,11.486,25.6,25.6v25.6c0,18.825-15.309,34.133-34.133,34.133
				c-18.825,0-34.133-15.309-34.133-34.133V162.133z"/>
			<path d="M409.6,358.4c28.237,0,51.2-22.963,51.2-51.2v-25.6c0-23.526-19.14-42.667-42.667-42.667h-17.067
				c-23.526,0-42.667,19.14-42.667,42.667v25.6C358.4,335.437,381.363,358.4,409.6,358.4z M375.467,281.6
				c0-14.114,11.486-25.6,25.6-25.6h17.067c14.114,0,25.6,11.486,25.6,25.6v25.6c0,18.825-15.309,34.133-34.133,34.133
				c-18.825,0-34.133-15.309-34.133-34.133V281.6z"/>
			<path d="M281.958,375.578c-3.814,0.077-7.415,2.355-8.533,6.076L256,439.671l-17.425-58.01c-1.084-3.601-4.395-6.067-8.158-6.076
				c-29.602-0.085-51.388,6.315-64.043,18.953c-8.354,8.337-12.774,19.447-12.774,32.128v76.8c0,4.71,3.823,8.533,8.533,8.533
				c4.71,0,8.533-3.823,8.533-8.533v-76.8c0-8.166,2.611-14.908,7.765-20.053c8.405-8.388,24.107-13.141,45.653-13.867l23.74,79.044
				c1.084,3.601,4.412,6.076,8.175,6.076s7.091-2.475,8.175-6.076l23.74-79.053c21.538,0.734,37.248,5.487,45.653,13.875
				c5.154,5.146,7.765,11.887,7.765,20.053v76.8c0,4.71,3.823,8.533,8.533,8.533s8.533-3.823,8.533-8.533v-76.8
				c0-12.681-4.42-23.791-12.774-32.128C333.022,381.952,311.603,375.578,281.958,375.578z"/>
			<path d="M179.2,238.933c28.237,0,51.2-22.963,51.2-51.2v-25.6c0-23.526-19.14-42.667-42.667-42.667h-17.067
				c-23.526,0-42.667,19.14-42.667,42.667v25.6C128,215.97,150.963,238.933,179.2,238.933z M145.067,162.133
				c0-14.114,11.486-25.6,25.6-25.6h17.067c14.114,0,25.6,11.486,25.6,25.6v25.6c0,18.825-15.309,34.133-34.133,34.133
				s-34.133-15.309-34.133-34.133V162.133z"/>
			<path d="M499.226,394.539c-12.604-12.587-34.022-18.961-63.667-18.961c-3.763,0.077-7.415,2.355-8.533,6.076L409.6,439.671
				l-17.425-58.01c-1.084-3.601-4.395-6.067-8.149-6.076c-5.956,0.094-11.938,0.239-17.459,0.768
				c-4.693,0.452-8.132,4.617-7.689,9.31c0.452,4.685,4.599,8.038,9.31,7.68c3.046-0.29,6.221-0.495,9.498-0.597l23.74,79.044
				c1.084,3.601,4.412,6.076,8.175,6.076c3.763,0,7.091-2.475,8.175-6.076l23.74-79.053c21.538,0.734,37.248,5.487,45.653,13.875
				c5.154,5.146,7.765,11.887,7.765,20.053V486.4c0,4.71,3.823,8.533,8.533,8.533S512,491.11,512,486.4v-59.733
				C512,413.986,507.58,402.876,499.226,394.539z"/>
			<path d="M102.4,358.4c28.237,0,51.2-22.963,51.2-51.2v-25.6c0-23.526-19.14-42.667-42.667-42.667H93.867
				c-23.526,0-42.667,19.14-42.667,42.667v25.6C51.2,335.437,74.163,358.4,102.4,358.4z M68.267,281.6
				c0-14.114,11.486-25.6,25.6-25.6h17.067c14.114,0,25.6,11.486,25.6,25.6v25.6c0,18.825-15.309,34.133-34.133,34.133
				c-18.825,0-34.133-15.309-34.133-34.133V281.6z"/>
			<path d="M145.903,376.397c-5.487-0.546-11.418-0.819-17.63-0.819c-3.814,0.026-7.339,2.381-8.448,6.076L102.4,439.671
				l-17.425-58.01c-1.084-3.601-4.395-6.067-8.158-6.076c-30.234-0.085-51.388,6.315-64.043,18.953
				C4.42,402.876,0,413.986,0,426.667V486.4c0,4.71,3.823,8.533,8.533,8.533s8.533-3.823,8.533-8.533v-59.733
				c0-8.166,2.611-14.908,7.765-20.053c8.405-8.388,24.107-13.141,45.653-13.867l23.74,79.044c1.084,3.601,4.412,6.076,8.175,6.076
				c3.763,0,7.091-2.475,8.175-6.076l23.74-79.053c3.456,0.119,6.758,0.333,9.882,0.648c4.779,0.503,8.875-2.961,9.344-7.646
				C154.01,381.047,150.588,376.875,145.903,376.397z"/>
		</g>
	</g>
</g>
</svg>