<svg version="1.1" id="Layer_1" xmlns="http://www.w3.org/2000/svg" xmlns:xlink="http://www.w3.org/1999/xlink" x="0px" y="0px"
	 viewBox="0 0 512.009 512.009" style="enable-background:new 0 0 512.009 512.009;" xml:space="preserve">
	 <style>
		/* <![CDATA[ */
		path {
			fill: #ff911b;
		}
		/* ]]> */
	</style>
<g>
	<g>
		<g>
			<path d="M76.804,494.933H8.538c-4.719,0-8.533,3.823-8.533,8.533S3.819,512,8.538,512h68.267c4.719,0,8.533-3.823,8.533-8.533
				S81.523,494.933,76.804,494.933z"/>
			<path d="M460.804,264.533c18.825,0,34.133-15.309,34.133-34.133v-17.067c0-9.412-7.663-17.067-17.067-17.067h-20.036
				c-4.079-24.457-12.467-47.599-24.994-69.009c6.665-6.229,10.897-15.036,10.897-24.858V85.333c0-9.412-7.663-17.067-17.067-17.067
				h-45.73c-24.226-18.679-52.463-31.71-82.27-38.05v-13.15C298.671,7.654,291.017,0,281.604,0h-51.2
				c-9.412,0-17.067,7.654-17.067,17.067v13.15c-29.807,6.34-58.044,19.371-82.27,38.05h-45.73c-9.412,0-17.067,7.654-17.067,17.067
				V102.4c0,9.822,4.233,18.628,10.897,24.858c-12.527,21.41-20.915,44.552-24.994,69.009H34.138
				c-9.412,0-17.067,7.654-17.067,17.067V230.4c0,18.825,15.309,34.133,34.133,34.133h3.012
				c4.608,27.401,14.771,53.606,29.85,76.928c-8.815,0.666-15.795,7.962-15.795,16.939v17.067c0,18.825,15.309,34.133,34.133,34.133
				h17.067c8.823,0,16.802-3.456,22.869-8.969c9.037,6.042,18.577,11.349,28.493,15.889l-31.531,78.413h-28.365
				c-4.719,0-8.533,3.823-8.533,8.533s3.814,8.533,8.533,8.533h34.108c0.009,0,0.017,0.009,0.026,0.009
				c0.009,0,0.017-0.009,0.026-0.009h221.816c0.009,0,0.017,0.009,0.026,0.009s0.017-0.009,0.026-0.009h85.308
				c4.719,0,8.533-3.823,8.533-8.533s-3.814-8.533-8.533-8.533h-79.582l-31.795-78.285c10.01-4.565,19.644-9.916,28.774-16.017
				c6.067,5.513,14.046,8.969,22.869,8.969h17.067c18.825,0,34.133-15.309,34.133-34.133V358.4c0-8.977-6.98-16.273-15.795-16.939
				c15.078-23.322,25.242-49.527,29.85-76.928H460.804z M375.471,85.333h51.2V102.4c0,6.767-3.994,12.578-9.719,15.334
				c-0.017,0.008-0.034,0.008-0.051,0.017c-0.008,0.009-0.008,0.017-0.017,0.026c-2.21,1.05-4.659,1.69-7.279,1.69h-17.067
				c-9.412,0-17.067-7.654-17.067-17.067V85.333z M392.538,136.533h17.067c2.85,0,5.581-0.452,8.235-1.118
				c11.153,18.918,18.799,39.313,22.733,60.851h-13.901c-9.412,0-17.067,7.654-17.067,17.067v8.533H297.801
				c-1.101-5.436-3.268-10.487-6.238-14.959l78.78-78.78C376.333,133.291,384.03,136.533,392.538,136.533z M296.085,47.087
				c23.416,5.103,45.747,14.746,65.587,28.288c-2.039,2.807-3.268,6.229-3.268,9.958V102.4c0,4.028,0.828,7.834,2.108,11.426
				l-81.016,81.016c-4.48-2.97-9.523-5.137-14.959-6.246V68.267C278.78,68.267,290.974,59.494,296.085,47.087z M281.604,392.533
				h-17.067V273.98l54.093,133.222c-6.562,2.321-13.193,4.412-19.959,5.99v-3.063V409.6
				C298.671,400.188,291.017,392.533,281.604,392.533z M230.404,409.6h51.2v17.067c0,9.412-7.663,17.067-17.067,17.067h-17.067
				c-9.412,0-17.067-7.654-17.067-17.067V409.6z M213.338,409.6v3.584c-6.895-1.604-13.696-3.61-20.369-5.99l54.289-135.04
				c0.068,0.008,0.137,0.034,0.213,0.051v120.328h-17.067C220.992,392.533,213.338,400.188,213.338,409.6z M256.004,256
				c-14.114,0-25.6-11.486-25.6-25.6s11.486-25.6,25.6-25.6c14.114,0,25.6,11.486,25.6,25.6S270.118,256,256.004,256z
				 M230.404,17.067h51.2v17.067c0,0.486-0.102,0.947-0.145,1.425c-0.009,0.026-0.026,0.051-0.034,0.077
				c-0.009,0.068,0.017,0.119,0.008,0.179c-0.862,8.619-8.064,15.386-16.896,15.386h-17.067c-8.832,0-16.034-6.767-16.905-15.386
				c0-0.06,0.026-0.111,0.009-0.179c-0.009-0.026-0.017-0.051-0.026-0.077c-0.043-0.478-0.145-0.939-0.145-1.425V17.067z
				 M215.932,47.104c5.111,12.399,17.306,21.163,31.539,21.163v120.329c-5.436,1.109-10.479,3.277-14.959,6.246l-81.016-81.016
				c1.28-3.593,2.108-7.398,2.108-11.426V85.333c0-3.738-1.246-7.168-3.285-9.975C170.167,61.815,192.516,52.207,215.932,47.104z
				 M85.338,85.333h51.2V102.4c0,9.412-7.663,17.067-17.067,17.067h-17.067c-2.62,0-5.069-0.64-7.287-1.69
				c-0.009-0.009-0.009-0.017-0.017-0.026s-0.026-0.009-0.043-0.017c-5.726-2.756-9.719-8.568-9.719-15.334V85.333z M94.17,135.415
				c2.654,0.666,5.385,1.118,8.235,1.118h17.067c8.508,0,16.205-3.243,22.195-8.405l78.78,78.78
				c-2.97,4.471-5.146,9.523-6.238,14.959H102.404v-8.533c0-9.412-7.663-17.067-17.067-17.067H71.437
				C75.371,174.729,83.017,154.334,94.17,135.415z M51.204,247.467c-9.412,0-17.067-7.654-17.067-17.067v-17.067h51.2V230.4
				c0,9.412-7.663,17.067-17.067,17.067H51.204z M136.538,375.467c0,9.412-7.663,17.067-17.067,17.067h-17.067
				c-9.412,0-17.067-7.654-17.067-17.067V358.4h51.2V375.467z M133.005,341.333H104.7c-16.785-22.878-28.177-49.271-33.254-77.124
				c14.421-1.348,26.189-11.597,29.747-25.276h113.015c1.092,5.436,3.268,10.487,6.238,14.959L133.005,341.333z M151.659,386.338
				c1.169-3.43,1.946-7.049,1.946-10.871V358.4c0-3.806-1.289-7.287-3.405-10.129l80.367-80.367l-53.367,132.77
				C168.324,396.561,159.782,391.782,151.659,386.338z M354.266,494.933H157.692l28.911-71.902c8.858,3.2,17.946,5.717,27.145,7.654
				c2.014,16.913,16.273,30.114,33.724,30.114h17.067c17.451,0,31.71-13.201,33.724-30.114c9.097-1.92,18.082-4.386,26.854-7.535
				L354.266,494.933z M358.822,379.554c0.008,0.29-0.094,0.555-0.051,0.853c0.051,0.316,0.171,0.614,0.222,0.93
				c0.188,1.05,0.469,2.039,0.742,3.038c0.188,0.7,0.273,1.434,0.512,2.116c-8.175,5.47-16.862,10.155-25.805,14.268
				l-54.596-134.451l81.963,81.963c-2.116,2.842-3.405,6.323-3.405,10.129v17.067C358.404,376.866,358.652,378.197,358.822,379.554z
				 M426.671,375.467c0,9.412-7.654,17.067-17.067,17.067h-17.067c-6.007,0-11.273-3.14-14.319-7.842
				c-0.631-0.973-1.126-1.997-1.545-3.038c-0.137-0.341-0.222-0.7-0.333-1.058c-0.23-0.734-0.444-1.476-0.58-2.244
				c-0.154-0.939-0.29-1.894-0.29-2.884V358.4h51.2V375.467z M407.3,341.333h-28.297l-87.441-87.441
				c2.97-4.471,5.137-9.523,6.238-14.959h113.016c3.558,13.679,15.317,23.927,29.747,25.276
				C435.486,292.062,424.094,318.456,407.3,341.333z M426.671,230.426c0-0.008,0.009-0.017,0.009-0.026
				c0-0.017-0.009-0.026-0.009-0.043v-17.024h51.2V230.4c0,9.412-7.654,17.067-17.067,17.067h-17.067
				C434.334,247.467,426.688,239.829,426.671,230.426z"/>
			<path d="M503.471,494.933h-17.067c-4.719,0-8.533,3.823-8.533,8.533s3.814,8.533,8.533,8.533h17.067
				c4.719,0,8.533-3.823,8.533-8.533S508.19,494.933,503.471,494.933z"/>
			<path d="M256.26,221.867h-0.094c-4.702,0-8.482,3.823-8.482,8.533s3.857,8.533,8.576,8.533c4.71,0,8.533-3.823,8.533-8.533
				S260.971,221.867,256.26,221.867z"/>
		</g>
	</g>
</g>
</svg>