<?xml version="1.0" encoding="iso-8859-1"?>
<!-- Generator: Adobe Illustrator 19.0.0, SVG Export Plug-In . SVG Version: 6.00 Build 0)  -->
<svg version="1.1" id="Layer_1" xmlns="http://www.w3.org/2000/svg" xmlns:xlink="http://www.w3.org/1999/xlink" x="0px" y="0px"
	 viewBox="0 0 510.506 510.506" style="enable-background:new 0 0 510.506 510.506;" xml:space="preserve">
	 <style>
		/* <![CDATA[ */
		path {
			fill: #ff911b;
		}
		/* ]]> */
	</style>
<g>
	<g>
		<g>
			<path d="M89.546,130.835c-8.32,3.313-16.16,7.757-23.303,13.208c-4.39,3.351-5.233,9.626-1.882,14.016
				c1.968,2.579,4.945,3.934,7.957,3.934c2.115,0,4.248-0.668,6.06-2.051c5.694-4.345,11.941-7.887,18.567-10.525
				c5.131-2.043,7.634-7.859,5.591-12.99C100.493,131.295,94.676,128.793,89.546,130.835z"/>
			<path d="M57.939,164.883c-4.587-3.076-10.799-1.849-13.875,2.738c-6.944,10.358-11.797,21.772-14.424,33.927
				c-1.167,5.398,2.264,10.72,7.662,11.887c0.712,0.154,1.422,0.228,2.122,0.228c4.607,0,8.752-3.203,9.765-7.89
				c2.091-9.675,5.956-18.764,11.487-27.015C63.752,174.17,62.526,167.958,57.939,164.883z"/>
			<path d="M417.258,278.462h43.867c5.523,0,10-4.477,10-10s-4.477-10-10-10h-43.867c-5.523,0-10,4.477-10,10
				S411.735,278.462,417.258,278.462z"/>
			<path d="M160.043,278.462h211.355c5.523,0,10-4.477,10-10s-4.477-10-10-10H160.043c-5.523,0-10,4.477-10,10
				S154.52,278.462,160.043,278.462z"/>
			<path d="M76.298,263.447H65.332c-5.523,0-10,4.477-10,10s4.477,10,10,10h10.966c5.523,0,10-4.477,10-10
				S81.821,263.447,76.298,263.447z"/>
			<path d="M131.729,345.198c-0.889,0-1.746,0.127-2.566,0.345c-4.277,1.134-7.434,5.021-7.434,9.655
				c0,5.261-4.28,9.541-9.541,9.541c-4.634,0-8.521,3.157-9.655,7.434c-0.218,0.82-0.345,1.677-0.345,2.566c0,5.523,4.477,10,10,10
				c16.289,0,29.541-13.252,29.541-29.541C141.729,349.675,137.252,345.198,131.729,345.198z"/>
			<path d="M112.188,345.657c4.634,0,8.521-3.157,9.655-7.434c0.217-0.82,0.345-1.677,0.345-2.566c0-5.523-4.477-10-10-10
				c-16.289,0-29.541,13.252-29.541,29.541c0,5.523,4.477,10,10,10c0.889,0,1.746-0.127,2.566-0.345
				c4.277-1.134,7.434-5.021,7.434-9.655C102.648,349.937,106.928,345.657,112.188,345.657z"/>
			<path d="M418.854,345.198c-0.889,0-1.745,0.127-2.566,0.345c-4.277,1.134-7.434,5.021-7.434,9.655
				c0,5.261-4.28,9.541-9.541,9.541c-4.634,0-8.521,3.157-9.655,7.434c-0.218,0.82-0.345,1.677-0.345,2.566c0,5.523,4.477,10,10,10
				c16.289,0,29.541-13.252,29.541-29.541C428.854,349.675,424.376,345.198,418.854,345.198z"/>
			<path d="M399.313,345.657c4.634,0,8.521-3.157,9.655-7.434c0.217-0.82,0.345-1.677,0.345-2.566c0-5.523-4.477-10-10-10
				c-16.289,0-29.54,13.252-29.54,29.541c0,5.523,4.477,10,10,10c0.889,0,1.745-0.127,2.566-0.345
				c4.277-1.134,7.434-5.021,7.434-9.655C389.773,349.937,394.053,345.657,399.313,345.657z"/>
			<path d="M500.505,96.456H125.647C56.365,96.456,0,152.821,0,222.104v133.593c0,5.523,4.477,10,10,10h44.294
				c4.967,27.456,29.028,48.353,57.895,48.353s52.927-20.896,57.895-48.353H341.42c4.967,27.456,29.028,48.353,57.894,48.353
				c28.866,0,52.927-20.896,57.895-48.353h43.297c5.523,0,10-4.477,10-10v-249.24C510.505,100.933,506.028,96.456,500.505,96.456z
				 M257.837,116.456h106.552v105.119H257.837V116.456z M133.155,116.456h104.682v105.119H133.155V116.456z M113.155,117.198
				v104.377H20.007C20.272,167.785,60.939,123.378,113.155,117.198z M54.104,345.696H20v-33.337h14.426c5.523,0,10-4.477,10-10
				s-4.477-10-10-10H20v-8.912h14.426c5.523,0,10-4.477,10-10s-4.477-10-10-10H20v-21.872h93.155v54.794
				C84.593,295.904,58.76,317.125,54.104,345.696z M112.188,394.049c-20.849,0-37.896-16.513-38.794-37.145
				c0.149,17.432-0.19-20.583-0.022-2.506c0.531-20.755,17.852-38.052,38.816-38.052c21.332,0,39.034,17.981,38.84,39.272
				C150.801,376.847,133.47,394.049,112.188,394.049z M360.477,356.009c0.003,0.256,0.007,0.628,0.012,1.078
				C360.486,356.741,360.482,356.382,360.477,356.009z M399.313,394.049c-21.278,0-38.607-17.197-38.84-38.421
				c-0.197-21.295,17.503-39.281,38.84-39.281c21.336,0,39.037,17.979,38.84,39.281
				C437.921,376.852,420.591,394.049,399.313,394.049z M490.505,345.696h-33.107c-0.153-0.823-0.307-1.646-0.46-2.469
				c-5.807-27.991-31.976-48.189-60.507-46.807c-1.74,0.084-3.477,0.266-5.203,0.496c-23.75,3.36-43.699,21.492-49.213,44.905
				c-0.298,1.285-0.573,2.573-0.786,3.876H170.273c-4.31-21.761-16.683-36.923-37.118-45.486v-58.636h357.35V345.696z
				 M490.505,221.575H384.389V116.456h106.116V221.575z"/>
			<path d="M221.106,123.623h-68.79c-5.523,0-10,4.477-10,10s4.477,10,10,10h68.79c5.523,0,10-4.477,10-10
				S226.629,123.623,221.106,123.623z"/>
			<path d="M346.724,123.623h-68.791c-5.523,0-10,4.477-10,10s4.477,10,10,10h68.791c5.523,0,10-4.477,10-10
				S352.247,123.623,346.724,123.623z"/>
			<path d="M403.55,143.623h68.791c5.523,0,10-4.477,10-10s-4.477-10-10-10H403.55c-5.523,0-10,4.477-10,10
				S398.027,143.623,403.55,143.623z"/>
		</g>
	</g>
</g>
<g>
</g>
<g>
</g>
<g>
</g>
<g>
</g>
<g>
</g>
<g>
</g>
<g>
</g>
<g>
</g>
<g>
</g>
<g>
</g>
<g>
</g>
<g>
</g>
<g>
</g>
<g>
</g>
<g>
</g>
</svg>
