<svg version="1.1" id="Capa_1" xmlns="http://www.w3.org/2000/svg" xmlns:xlink="http://www.w3.org/1999/xlink" x="0px" y="0px" width="791.998px" height="791.998px" viewBox="0 0 791.998 791.998" style="enable-background:new 0 0 791.998 791.998;" xml:space="preserve">
	<style>
		/* <![CDATA[ */
		path {
			fill: #656565;
		}
		/* ]]> */
	</style>
<g>
	<g>
		<path d="M560.613,208.971c-38.297-42.176-85.888-66.161-142.755-71.963c-1.552-53.004-16.136-90.212-42.943-113.355
			c-9.954-8.592-20.898-15.087-33.278-18.571c-12.38-3.483-22.045-5.414-28.624-5.035c-6.578,0.388-10.837,0.776-12.38,1.552
			c-11.993,1.543-19.347,12.38-17.415,24.373c1.939,11.993,13.156,18.958,24.373,17.407h0.776c4.259,0,23.028-2.162,39.081,11.993
			c16.837,14.865,25.916,42.564,27.468,81.636c-111.424,7.734-201.182,108.7-201.182,220.908v211.631
			c0,61.126,21.476,113.933,64.997,157.842c42.754,43.142,95.172,64.609,156.687,64.609h1.164
			c60.351,0,117.416-25.339,156.687-64.997c39.65-40.038,64.997-97.104,64.997-157.454V357.916
			C618.265,301.048,598.918,251.139,560.613,208.971z M575.321,569.547c0,96.74-81.629,181.183-178.74,179.896
			c-49.134-0.652-91.698-17.795-126.899-53.005c-35.21-35.201-53.005-77.757-53.005-126.891V357.916
			c0-47.582,16.342-88.892,49.134-123.417c32.981-34.723,72.682-55.712,120.321-55.712h9.285h14.312
			c46.559,0,85.508,22.83,117.614,57.264c32.115,34.434,47.979,75.05,47.979,121.865V569.547L575.321,569.547z"/>
		<path d="M402.771,239.146h-12.769c-14.32,0-26.214,5.125-36.366,15.087c-9.97,9.772-15.096,22.054-15.096,36.366v89.758
			c0,13.544,5.035,25.537,15.096,35.59c10.053,10.061,22.045,15.096,36.366,15.096h12.769c13.924,0,25.916-5.035,35.589-14.708
			c10.062-10.053,15.088-22.054,15.088-35.978V290.6c0-14.312-5.125-26.214-15.088-36.366
			C428.589,244.272,416.695,239.146,402.771,239.146z M410.505,380.357c0,4.259-3.483,7.733-7.733,7.733h-12.769
			c-1.164,0-3.095-0.768-6.19-2.319c-1.552-1.543-2.328-3.483-2.328-5.415V290.6c0-4.639,3.871-7.734,8.518-7.734h12.769
			c4.25,0,7.733,3.095,7.733,7.734V380.357z"/>
	</g>
</g>
</svg>